<?xml version="1.0" encoding="UTF-8"?>
<svg xmlns="http://www.w3.org/2000/svg" viewBox="10 16 490 202">
<path fill-rule="evenodd" d="M 46 24 H 214 A 30 30 0 0 1 244 54 V 118 A 30 30 0 0 1 214 148 H 46 A 30 30 0 0 1 16 118 V 54 A 30 30 0 0 1 46 24 Z M42.41499999999999 112.0V55.583999999999996H60.53699999999999V76.166H80.463V55.583999999999996H98.585V112.0H80.463V90.598H60.53699999999999V112.0ZM108.96699999999998 112.0V55.583999999999996H157.757V69.114H127.089V76.904H153.329V89.86H127.089V98.47H158.331V112.0ZM182.817 112.0V90.106L160.431 55.583999999999996H181.25900000000001L192.083 74.362H192.411L203.235 55.583999999999996H222.997L200.939 90.106V112.0Z" fill="#111214"></path>
<path transform="translate(262 112)" d="M13.940000000000001 0.0 0.902 -43.132000000000005H8.364L14.924000000000001 -19.434Q15.416 -17.712 15.867 -15.703Q16.318 -13.694 16.769000000000002 -12.013000000000002Q17.220000000000002 -10.332 17.384 -9.43H17.876Q18.204 -10.988000000000001 18.655 -12.956000000000001Q19.106 -14.924000000000001 19.475 -16.728Q19.844 -18.532 20.09 -19.516000000000002L25.994 -43.132000000000005H33.784L39.77 -19.516000000000002Q40.098 -18.122 40.507999999999996 -16.277Q40.918 -14.432 41.369 -12.628Q41.82 -10.824 41.984 -9.43H42.476Q42.804 -10.742 43.214 -12.505Q43.624 -14.268 44.116 -16.113Q44.608000000000004 -17.958000000000002 45.018 -19.352L51.496 -43.132000000000005H58.384L45.428000000000004 0.0H38.048L32.472 -22.304000000000002Q32.144 -23.862000000000002 31.652 -25.953000000000003Q31.16 -28.044 30.709000000000003 -30.217Q30.258000000000003 -32.39 29.93 -34.03H29.438000000000002Q29.274 -32.800000000000004 28.905 -30.914Q28.536 -29.028000000000002 28.044 -26.773000000000003Q27.552 -24.518 26.896 -22.304000000000002L21.32 0.0ZM61.944 -51.25V-59.286H69.16V-51.25ZM61.944 0.0V-43.132000000000005H69.16V0.0ZM77.39399999999999 0.0V-43.132000000000005H83.216L83.87199999999999 -35.998000000000005H84.446Q85.10199999999999 -38.048 86.25 -39.893Q87.398 -41.738 89.36599999999999 -42.927Q91.33399999999999 -44.116 94.204 -44.116Q95.434 -44.116 96.459 -43.911Q97.484 -43.706 97.976 -43.46V-36.818000000000005H95.27Q92.482 -36.818000000000005 90.473 -35.875Q88.464 -34.932 87.15199999999999 -33.21Q85.83999999999999 -31.488 85.225 -29.11Q84.60999999999999 -26.732000000000003 84.60999999999999 -24.026V0.0ZM118.018 0.984Q111.622 0.984 107.235 -1.435Q102.848 -3.854 100.59299999999999 -8.856Q98.338 -13.858 98.338 -21.566000000000003Q98.338 -29.356 100.59299999999999 -34.317Q102.848 -39.278 107.27600000000001 -41.697Q111.70400000000001 -44.116 118.346 -44.116Q124.414 -44.116 128.514 -41.778999999999996Q132.614 -39.442 134.70499999999998 -34.809Q136.796 -30.176000000000002 136.796 -23.206V-19.762H105.8Q105.964 -14.596 107.31700000000001 -11.275Q108.67 -7.954000000000001 111.376 -6.437Q114.082 -4.92 118.182 -4.92Q120.97 -4.92 123.061 -5.617Q125.152 -6.314 126.58699999999999 -7.626Q128.022 -8.938 128.76 -10.742Q129.498 -12.546000000000001 129.58 -14.678H136.632Q136.55 -11.234 135.32 -8.323Q134.09 -5.412 131.712 -3.362Q129.334 -1.312 125.89 -0.16400000000000003Q122.446 0.984 118.018 0.984ZM105.964 -25.174H129.334Q129.334 -28.782 128.514 -31.241999999999997Q127.694 -33.702 126.17699999999999 -35.260000000000005Q124.66 -36.818000000000005 122.651 -37.515Q120.642 -38.212 118.1 -38.212Q114.328 -38.212 111.70400000000001 -36.818Q109.08 -35.424 107.686 -32.554Q106.292 -29.684 105.964 -25.174Z" fill="#111214"></path>
<path transform="translate(405 63)" d="M6.328 -3.948V-9.604000000000001H7.714L9.212 -5.208H9.268L10.78 -9.604000000000001H12.138V-3.948H11.214V-8.288H11.172L9.646 -3.948H8.764L7.224 -8.344H7.182V-3.948ZM2.842 -3.962V-8.736H0.98V-9.604000000000001H5.614V-8.736H3.7520000000000002V-3.962Z" fill="#111214"></path>
<path d="M 62 148 L 46 188 L 104 148 Z" fill="#111214"></path>
<path d="M 50 188 L 428 188" fill="none" stroke="#111214" stroke-width="12" stroke-linecap="round"></path>
<rect x="424.00" y="180.75" width="9.00" height="14.50" rx="1.60" fill="#111214"></rect>
<path d="M 430.00 184.40 L 433.13 184.32 L 436.11 184.10 L 438.94 183.75 L 441.64 183.27 L 444.22 182.68 L 446.69 181.99 L 449.06 181.21 L 451.35 180.36 L 453.57 179.43 L 455.73 178.45 L 457.84 177.43 L 459.91 176.37 L 461.96 175.29 L 464.00 174.20 L 466.04 173.11 L 468.09 172.03 L 470.16 170.97 L 472.27 169.95 L 474.43 168.97 L 476.65 168.04 L 478.94 167.19 L 481.31 166.41 L 483.78 165.72 L 486.36 165.13 L 489.06 164.65 L 491.89 164.30 L 494.87 164.08 L 498.00 164.00" fill="none" stroke="#111214" stroke-width="4.20" stroke-linecap="round" stroke-linejoin="round"></path>
<path d="M 430.00 186.80 L 433.13 186.77 L 436.11 186.70 L 438.94 186.58 L 441.64 186.42 L 444.22 186.23 L 446.69 186.00 L 449.06 185.74 L 451.35 185.45 L 453.57 185.14 L 455.73 184.82 L 457.84 184.48 L 459.91 184.12 L 461.96 183.76 L 464.00 183.40 L 466.04 183.04 L 468.09 182.68 L 470.16 182.32 L 472.27 181.98 L 474.43 181.66 L 476.65 181.35 L 478.94 181.06 L 481.31 180.80 L 483.78 180.57 L 486.36 180.38 L 489.06 180.22 L 491.89 180.10 L 494.87 180.03 L 498.00 180.00" fill="none" stroke="#111214" stroke-width="4.20" stroke-linecap="round" stroke-linejoin="round"></path>
<path d="M 430.00 189.20 L 433.13 189.23 L 436.11 189.30 L 438.94 189.42 L 441.64 189.58 L 444.22 189.77 L 446.69 190.00 L 449.06 190.26 L 451.35 190.55 L 453.57 190.86 L 455.73 191.18 L 457.84 191.52 L 459.91 191.88 L 461.96 192.24 L 464.00 192.60 L 466.04 192.96 L 468.09 193.32 L 470.16 193.68 L 472.27 194.02 L 474.43 194.34 L 476.65 194.65 L 478.94 194.94 L 481.31 195.20 L 483.78 195.43 L 486.36 195.62 L 489.06 195.78 L 491.89 195.90 L 494.87 195.97 L 498.00 196.00" fill="none" stroke="#111214" stroke-width="4.20" stroke-linecap="round" stroke-linejoin="round"></path>
<path d="M 430.00 191.60 L 433.13 191.68 L 436.11 191.90 L 438.94 192.25 L 441.64 192.73 L 444.22 193.32 L 446.69 194.01 L 449.06 194.79 L 451.35 195.64 L 453.57 196.57 L 455.73 197.55 L 457.84 198.57 L 459.91 199.63 L 461.96 200.71 L 464.00 201.80 L 466.04 202.89 L 468.09 203.97 L 470.16 205.03 L 472.27 206.05 L 474.43 207.03 L 476.65 207.96 L 478.94 208.81 L 481.31 209.59 L 483.78 210.28 L 486.36 210.87 L 489.06 211.35 L 491.89 211.70 L 494.87 211.92 L 498.00 212.00" fill="none" stroke="#111214" stroke-width="4.20" stroke-linecap="round" stroke-linejoin="round"></path>

</svg>
